#N canvas 986 196 634 417 12;
#X obj 8 226 voice, f 10;
#X text 139 3 Copyright 2019 Dan Bornstein <danfuzz@milk.com>. Licensed
AS IS and WITHOUT WARRANTY under the Apache License \, Version 2.0.
Details: <http://www.apache.org/licenses/LICENSE-2.0>, f 65;
#X obj 8 189 simple-mono;
#X text 8 89 **Note:** See the file `interface.md` in this patch for
information about the interface used between `simple-mono` (the note
parser) and `voice` (the controllable oscillator)., f 65;
#X obj 8 150 inlet;
#X text 50 151 Pairs of MIDI `[note \, velocity]`;
#X text 134 303 Stereo output.;
#X text 7 61 Top-level synthesizer definition;
#X obj 8 301 outlet~;
#X obj 75 301 outlet~;
#X text 106 187 Parses note messages \, and emits messages appropriate
for intake by a mono synth voice.;
#X text 109 229 Mono synth voice.;
#X connect 0 0 8 0;
#X connect 0 1 9 0;
#X connect 2 0 0 0;
#X connect 4 0 2 0;
