#N canvas 1234 291 1025 610 12;
#X text 501 14 Copyright 2019 Dan Bornstein <danfuzz@milk.com>. Licensed
AS IS and WITHOUT WARRANTY under the Apache License \, Version 2.0.
Details: <http://www.apache.org/licenses/LICENSE-2.0>, f 65;
#X text 607 103 frequency;
#X text 272 104 frequency cents;
#X text 786 98 aplitude amount %;
#X obj 614 190 send \$0-ring-freq;
#X obj 792 190 send \$0-ring-amt;
#X obj 284 189 send \$0-fm-cents;
#X text 450 102 amplitude;
#X obj 455 190 send \$0-fm-amp;
#X obj 27 569 outlet~;
#X obj 27 126 inlet;
#X text 12 104 Pairs of `(note \, velocity)`.;
#X obj 284 125 inlet;
#X obj 455 125 inlet;
#X obj 614 125 inlet;
#X obj 792 122 inlet;
#X text 304 77 Frequency modulator controls;
#X text 625 79 Amplitude LFO / ring modulator controls;
#X text 13 12 Demo synthesizer.;
#X msg 397 403 fm-cents \$1;
#X msg 542 403 fm-amp \$1;
#X msg 674 403 ring-freq \$1;
#X msg 826 403 ring-amt \$1;
#X obj 397 368 receive \$0-fm-cents;
#X obj 542 368 receive \$0-fm-amp;
#X obj 674 368 receive \$0-ring-freq;
#X obj 826 368 receive \$0-ring-amt;
#X text 491 332 Outlet to relay the knob values \, for UI presentation
outside this object.;
#X obj 635 501 outlet;
#X obj 455 158 infiknob 0 16 0.01 0;
#X obj 614 158 infiknob 0.1 20000 0.1 2;
#X obj 792 158 infiknob 0 100 0.01 0;
#X obj 284 158 infiknob -4800 4800 1 0;
#X obj 27 214 receive \$0-notes;
#X obj 68 293 receive \$0-fm-cents;
#X obj 109 342 receive \$0-fm-amp;
#X obj 150 391 receive \$0-ring-freq;
#X obj 192 440 receive \$0-ring-amt;
#X obj 27 160 send \$0-notes;
#X obj 27 267 pack 0 0 0;
#X msg 68 317 all \$1;
#X obj 27 496 clone -s 1 demo-voice~ 8;
#X obj 27 241 poly 8 1, f 10;
#X msg 109 366 all \$1;
#X msg 150 415 all \$1;
#X msg 192 464 all \$1;
#X obj 27 528 *~ 0.3;
#X connect 10 0 38 0;
#X connect 12 0 32 0;
#X connect 13 0 29 0;
#X connect 14 0 30 0;
#X connect 15 0 31 0;
#X connect 19 0 28 0;
#X connect 20 0 28 0;
#X connect 21 0 28 0;
#X connect 22 0 28 0;
#X connect 23 0 19 0;
#X connect 24 0 20 0;
#X connect 25 0 21 0;
#X connect 26 0 22 0;
#X connect 29 0 8 0;
#X connect 30 0 4 0;
#X connect 31 0 5 0;
#X connect 32 0 6 0;
#X connect 33 0 42 0;
#X connect 34 0 40 0;
#X connect 35 0 43 0;
#X connect 36 0 44 0;
#X connect 37 0 45 0;
#X connect 39 0 41 0;
#X connect 40 0 41 1;
#X connect 41 0 46 0;
#X connect 42 0 39 0;
#X connect 42 1 39 1;
#X connect 42 2 39 2;
#X connect 43 0 41 2;
#X connect 44 0 41 3;
#X connect 45 0 41 4;
#X connect 46 0 9 0;
