#N canvas 189 575 718 797 12;
#X text 240 3 Copyright 2019 Dan Bornstein <danfuzz@milk.com>. Licensed
AS IS and WITHOUT WARRANTY under the Apache License \, Version 2.0.
Details: <http://www.apache.org/licenses/LICENSE-2.0>, f 65;
#X obj 22 729 outlet~;
#X obj 28 107 inlet;
#X text 13 85 Pairs of `(note \, velocity)`.;
#X obj 263 107 inlet;
#X text 13 12 Demo synthesizer.;
#X text 325 750 Outlet to relay the knob values \, for UI presentation
outside this object., f 38;
#X obj 327 729 outlet;
#X obj 22 575 receive \$0-notes;
#X obj 28 141 send \$0-notes;
#X obj 22 629 pack 0 0 0;
#X obj 22 683 *~ 0.3;
#X text 323 535 FM: frequency cents;
#X text 386 437 FM: amplitude;
#X text 450 344 AM: frequency Hz;
#X text 512 256 AM: amplitude amount %;
#X msg 512 212 ring-amt \$1;
#X msg 450 302 ring-freq \$1;
#X msg 387 393 fm-amp \$1;
#X msg 325 488 fm-cents \$1;
#X obj 187 575 receive \$0-control;
#X obj 512 236 send \$0-control;
#X obj 450 326 send \$0-control;
#X obj 387 417 send \$0-control;
#X obj 325 512 send \$0-control;
#X obj 327 692 receive \$0-control;
#X text 20 756 Audio;
#X obj 187 602 list prepend all;
#X obj 187 629 list trim;
#X obj 263 146 route bang fm-cents fm-amp ring-freq ring-amt;
#X text 261 61 Tagged control values `<name> <value>` with `<value>`
in the range [-1..1]. `bang` sends a bang to all of the knobs \, so
each will output its respective current value., f 57;
#X obj 22 656 clone -s 1 demo-voice~ 8;
#X obj 22 602 poly 8 1, f 10;
#X obj 450 278 infiknob 0.1 20000 0.1 1.5;
#X obj 512 188 infiknob 0 100 0.01 15;
#X obj 325 464 infiknob -4800 4800 1 1200;
#X obj 387 369 infiknob 0 16 0.01 0.75;
#X connect 2 0 9 0;
#X connect 4 0 29 0;
#X connect 8 0 32 0;
#X connect 10 0 31 0;
#X connect 11 0 1 0;
#X connect 16 0 21 0;
#X connect 17 0 22 0;
#X connect 18 0 23 0;
#X connect 19 0 24 0;
#X connect 20 0 27 0;
#X connect 25 0 7 0;
#X connect 27 0 28 0;
#X connect 28 0 31 1;
#X connect 29 0 33 0;
#X connect 29 0 34 0;
#X connect 29 0 35 0;
#X connect 29 0 36 0;
#X connect 29 1 35 0;
#X connect 29 2 36 0;
#X connect 29 3 33 0;
#X connect 29 4 34 0;
#X connect 31 0 11 0;
#X connect 32 0 10 0;
#X connect 32 1 10 1;
#X connect 32 2 10 2;
#X connect 33 0 17 0;
#X connect 34 0 16 0;
#X connect 35 0 19 0;
#X connect 36 0 18 0;
