#N canvas 931 104 841 1012 12;
#X text 362 13 Copyright 2019 Dan Bornstein <danfuzz@milk.com>. Licensed
AS IS and WITHOUT WARRANTY under the Apache License \, Version 2.0.
Details: <http://www.apache.org/licenses/LICENSE-2.0>, f 65;
#X obj 23 156 mtof;
#X obj 90 157 expr if($f1 == 0 \, 0 \, 1);
#X obj 27 942 *~;
#X text 417 220 frequency;
#X obj 45 820 osc~;
#X obj 27 895 *~;
#X text 280 310 frequency cents;
#X obj 423 395 loadbang;
#X obj 423 427 expr pow(2 \, 1.0/1200);
#X obj 23 226 send \$0-main-freq;
#X obj 90 188 send \$0-on-off;
#X obj 72 906 receive \$0-on-off;
#X obj 418 201 send \$0-ring-freq;
#X obj 487 162 send \$0-ring-amt;
#X obj 45 790 receive \$0-ring-freq;
#X obj 217 819 receive \$0-ring-amt;
#X obj 280 290 send \$0-fm-cents;
#X obj 423 459 value one_cent\$0;
#X text 420 324 Constant "one cent." That is \, the value which if
taken to the 1200th power is 2 \, or put another way \, the ratio which
if applied 1200 times to a frequency yields the frequency one octave
higher., f 54;
#X text 348 267 amplitude;
#X obj 349 249 send \$0-fm-amp;
#X obj 27 977 outlet~;
#X obj 23 81 inlet;
#X text 8 59 Pairs of `(note \, velocity)`.;
#X obj 280 80 inlet;
#X obj 23 126 unpack 0 0;
#X text 13 11 Demo voice.;
#X obj 280 112 route fm-cents fm-amp ring-freq ring-amt;
#X text 273 57 Controls;
#X obj 27 633 phasor~;
#X obj 27 460 receive \$0-main-freq;
#X obj 421 529 loadbang;
#X obj 421 558 expr asin(1) * 4;
#X obj 421 586 value two_pi\$0;
#X text 249 763 See "The Synthesis of Complex Audio Spectra by Means
of Frequency Modulation" by John M. Chowning \, 1973 \, page 1, f
63;
#X obj 27 661 expr~ cos(($v1 * two_pi\$0) + $v3 * cos($v2 * two_pi\$0))
, f 30;
#X obj 130 612 phasor~;
#X obj 130 504 receive \$0-fm-cents;
#X obj 130 535 trigger bang float, f 21;
#X obj 234 631 receive \$0-fm-amp;
#X obj 130 569 expr $f1 * pow(one_cent\$0 \, $f2), f 21;
#X text 419 493 Constant 2*pi \, used to convert [0..1] range to the
usual radian range for trigonometric functions., f 54;
#X text 456 277 Frequency modulation controls, f 22;
#X text 636 180 Amplitude LFO / ring modulation controls, f 25;
#X text 249 704 A == overall amplitude \, I == modulation index (modulator
amplitude) \, alpha == carrier frequency in rad/sec \, beta == modulator
frequency in rad/sec. (A is always 1 in this version.), f 63;
#X text 249 659 Classic FM algorithm (which is \, technically speaking
\, actually a _phase_ modulation algorithm): y = A * sin(alpha*t +
I * sin(beta*t)), f 63;
#X obj 45 847 expr~ 1 + $v2 * ($v1 - 1);
#X obj 487 137 * 0.01;
#X text 486 181 amplitude amount;
#X text 537 137 Convert % to fraction.;
#X connect 1 0 10 0;
#X connect 2 0 11 0;
#X connect 3 0 22 0;
#X connect 5 0 47 0;
#X connect 6 0 3 0;
#X connect 8 0 9 0;
#X connect 9 0 18 0;
#X connect 12 0 3 1;
#X connect 15 0 5 0;
#X connect 16 0 47 1;
#X connect 23 0 26 0;
#X connect 25 0 28 0;
#X connect 26 0 1 0;
#X connect 26 1 2 0;
#X connect 28 0 17 0;
#X connect 28 1 21 0;
#X connect 28 2 13 0;
#X connect 28 3 48 0;
#X connect 30 0 36 0;
#X connect 31 0 30 0;
#X connect 31 0 41 0;
#X connect 32 0 33 0;
#X connect 33 0 34 0;
#X connect 36 0 6 0;
#X connect 37 0 36 1;
#X connect 38 0 39 0;
#X connect 39 0 41 0;
#X connect 39 1 41 1;
#X connect 40 0 36 2;
#X connect 41 0 37 0;
#X connect 47 0 6 1;
#X connect 48 0 14 0;
