#N canvas 900 100 782 477 12;
#X declare -path .;
#X obj 11 43 declare -path .;
#X text 306 9 Copyright 2019 Dan Bornstein <danfuzz@milk.com>. Licensed
AS IS and WITHOUT WARRANTY under the Apache License \, Version 2.0.
Details: <http://www.apache.org/licenses/LICENSE-2.0>, f 65;
#X text 13 12 "Vanilla Pd" example for this patch.;
#X obj 346 122 ctl-to-pm1;
#X obj 435 122 ctl-to-pm1;
#X obj 259 122 ctl-to-pm1;
#X obj 172 122 ctl-to-pm1;
#N canvas 0 50 450 250 (subpatch) 0;
#X array \$0-scope 256 float 0;
#X coords 0 -1 255 1 256 128 1 0 0;
#X restore 505 329 graph;
#X obj 351 296 receive~ \$0-out;
#X obj 373 402 metro 100;
#X obj 351 436 tabwrite~ \$0-scope;
#X obj 172 89 ctlin 21;
#X obj 259 89 ctlin 22;
#X obj 346 89 ctlin 23;
#X obj 435 89 ctlin 24;
#X obj 155 341 demo-synth~;
#X obj 18 165 pack 0 0;
#X obj 186 383 send~ \$0-out;
#X obj 18 89 notein;
#X obj 156 420 dac~;
#X obj 70 126 send \$0-vel;
#X obj 373 323 receive \$0-vel;
#X obj 373 350 expr $f1 != 0;
#X obj 373 376 delay 100;
#X connect 3 0 15 3;
#X connect 4 0 15 4;
#X connect 5 0 15 2;
#X connect 6 0 15 1;
#X connect 8 0 10 0;
#X connect 9 0 10 0;
#X connect 11 0 6 0;
#X connect 12 0 5 0;
#X connect 13 0 3 0;
#X connect 14 0 4 0;
#X connect 15 0 17 0;
#X connect 15 0 19 0;
#X connect 15 0 19 1;
#X connect 16 0 15 0;
#X connect 18 0 16 0;
#X connect 18 1 16 1;
#X connect 18 1 20 0;
#X connect 21 0 22 0;
#X connect 22 0 23 0;
#X connect 23 0 9 0;
