#N canvas 165 119 858 532 12;
#X declare -path .;
#X obj 11 43 declare -path .;
#X text 306 9 Copyright 2019 Dan Bornstein <danfuzz@milk.com>. Licensed
AS IS and WITHOUT WARRANTY under the Apache License \, Version 2.0.
Details: <http://www.apache.org/licenses/LICENSE-2.0>, f 65;
#X text 13 12 "Vanilla Pd" example for this patch.;
#X obj 350 117 ctl-to-pm1;
#X obj 451 117 ctl-to-pm1;
#X obj 263 117 ctl-to-pm1;
#X obj 172 117 ctl-to-pm1;
#N canvas 0 50 450 250 (subpatch) 0;
#X array \$0-scope 256 float 0;
#X coords 0 -1 255 1 256 128 1 0 0;
#X restore 565 208 graph;
#X obj 415 201 receive~ \$0-out;
#X obj 437 307 metro 100;
#X obj 415 341 tabwrite~ \$0-scope;
#X obj 172 89 ctlin 21;
#X obj 263 89 ctlin 22;
#X obj 350 89 ctlin 23;
#X obj 451 89 ctlin 24;
#X obj 155 341 demo-synth~;
#X obj 18 165 pack 0 0;
#X obj 188 464 send~ \$0-out;
#X obj 18 89 notein;
#X obj 141 464 dac~;
#X obj 70 126 send \$0-vel;
#X obj 437 228 receive \$0-vel;
#X obj 437 255 expr $f1 != 0;
#X obj 437 281 delay 100;
#X obj 229 378 send \$0-knob-value;
#X obj 414 376 receive \$0-knob-value;
#X obj 414 415 route fm-cents fm-amp ring-freq ring-amt;
#X floatatom 483 454 8 0 0 0 - - -;
#X floatatom 621 454 8 0 0 0 - - -;
#X floatatom 414 454 8 0 0 0 - - -;
#X floatatom 552 454 8 0 0 0 - - -;
#X text 411 474 FM cents;
#X text 487 474 FM amp;
#X text 556 474 AM Hz;
#X text 620 474 AM %;
#X msg 172 145 fm-cents \$1;
#X msg 263 145 fm-amp \$1;
#X msg 350 145 ring-freq \$1;
#X msg 451 145 ring-amt \$1;
#X obj 155 408 polite-clip~;
#X connect 3 0 37 0;
#X connect 4 0 38 0;
#X connect 5 0 36 0;
#X connect 6 0 35 0;
#X connect 8 0 10 0;
#X connect 9 0 10 0;
#X connect 11 0 6 0;
#X connect 12 0 5 0;
#X connect 13 0 3 0;
#X connect 14 0 4 0;
#X connect 15 0 39 0;
#X connect 15 1 24 0;
#X connect 16 0 15 0;
#X connect 18 0 16 0;
#X connect 18 1 16 1;
#X connect 18 1 20 0;
#X connect 21 0 22 0;
#X connect 22 0 23 0;
#X connect 23 0 9 0;
#X connect 25 0 26 0;
#X connect 26 0 29 0;
#X connect 26 1 27 0;
#X connect 26 2 30 0;
#X connect 26 3 28 0;
#X connect 35 0 15 1;
#X connect 36 0 15 1;
#X connect 37 0 15 1;
#X connect 38 0 15 1;
#X connect 39 0 17 0;
#X connect 39 0 19 1;
#X connect 39 0 19 0;
