#N canvas 551 156 642 563 12;
#X declare -path ../vanilla;
#X text 156 3 Copyright 2019 Dan Bornstein <danfuzz@milk.com>. Licensed
AS IS and WITHOUT WARRANTY under the Apache License \, Version 2.0.
Details: <http://www.apache.org/licenses/LICENSE-2.0>, f 65;
#X obj 9 87 declare -path ../vanilla;
#X text 186 87 **Note:** This path gets changed to `.` when building
the final `.zip` output. `../vanilla` is correct only for development
on a "big computer.";
#X text 8 59 Organelle-specific main demo driver for this patch.;
#X obj 67 409 demo-synth~;
#X obj 23 157 r notes;
#X obj 67 505 throw~ outL;
#X obj 86 477 throw~ outR;
#X obj 84 157 receive knob1;
#X obj 187 157 receive knob2;
#X obj 290 157 receive knob3;
#X obj 393 157 receive knob4;
#X obj 84 190 01-to-pm1;
#X obj 187 190 01-to-pm1;
#X obj 290 190 01-to-pm1;
#X obj 393 190 01-to-pm1;
#X obj 327 419 receive \$0-knob-value;
#X obj 327 458 route fm-cents fm-amp ring-freq ring-amt;
#X floatatom 396 497 8 0 0 0 - - -;
#X floatatom 534 497 8 0 0 0 - - -;
#X floatatom 327 497 8 0 0 0 - - -;
#X floatatom 465 497 8 0 0 0 - - -;
#X text 324 517 FM cents;
#X text 400 517 FM amp;
#X text 469 517 AM Hz;
#X text 533 517 AM %;
#X obj 141 443 send \$0-knob-value;
#X connect 4 0 7 0;
#X connect 4 0 6 0;
#X connect 4 1 26 0;
#X connect 5 0 4 0;
#X connect 8 0 12 0;
#X connect 9 0 13 0;
#X connect 10 0 14 0;
#X connect 11 0 15 0;
#X connect 12 0 4 1;
#X connect 13 0 4 2;
#X connect 14 0 4 3;
#X connect 15 0 4 4;
#X connect 16 0 17 0;
#X connect 17 0 20 0;
#X connect 17 1 18 0;
#X connect 17 2 21 0;
#X connect 17 3 19 0;
