#N canvas 212 549 905 627 12;
#X declare -path ../vanilla;
#X text 156 3 Copyright 2019 Dan Bornstein <danfuzz@milk.com>. Licensed
AS IS and WITHOUT WARRANTY under the Apache License \, Version 2.0.
Details: <http://www.apache.org/licenses/LICENSE-2.0>, f 65;
#X obj 9 87 declare -path ../vanilla;
#X text 186 87 **Note:** This path gets changed to `.` when building
the final `.zip` output. `../vanilla` is correct only for development
on a "big computer.";
#X text 8 59 Organelle-specific main demo driver for this patch.;
#X obj 67 409 demo-synth~;
#X obj 23 157 r notes;
#X obj 67 505 throw~ outL;
#X obj 86 477 throw~ outR;
#X obj 84 157 receive knob1;
#X obj 187 157 receive knob2;
#X obj 290 157 receive knob3;
#X obj 393 157 receive knob4;
#X obj 84 185 01-to-pm1;
#X obj 187 187 01-to-pm1;
#X obj 290 185 01-to-pm1;
#X obj 393 185 01-to-pm1;
#X obj 497 230 receive \$0-knob-value;
#X obj 497 269 route fm-cents fm-amp ring-freq ring-amt;
#X obj 141 443 send \$0-knob-value;
#X obj 566 490 send screenLine2;
#X obj 704 349 send screenLine4;
#X obj 635 431 send screenLine3;
#X obj 635 406 list append Hz;
#X obj 497 592 send screenLine1;
#X obj 497 568 list append cents;
#X obj 704 323 list prepend 4: AM amt:;
#X obj 635 381 list prepend 3: AM fq:;
#X obj 566 466 list prepend 2: FM amp:;
#X obj 497 544 list prepend 1: FM fq:;
#N canvas 746 164 604 172 show-positive-sign 0;
#X obj 19 15 inlet;
#X obj 19 135 outlet;
#X obj 19 66 moses 0;
#X msg 65 96 symbol +\$1;
#X text 88 13 This turns an incoming non-negative number into a string
(well \, a symbol) \, with `+` prepended \, leaving negative numbers
alone (passing them through as-is).;
#X text 159 93 This works because `+` isn't a valid character to begin
a number with \, and the message box sematics are to perform string
concatenation before attempting to parse arguments.;
#X connect 0 0 2 0;
#X connect 2 0 1 0;
#X connect 2 1 3 0;
#X connect 3 0 1 0;
#X restore 497 518 pd show-positive-sign;
#X obj 279 328 loadbang;
#X obj 279 359 delay 100;
#X text 261 386 Force display update just after loading the patch.
, f 25;
#X msg 704 296 symbol \$1%;
#X msg 84 215 fm-cents \$1;
#X msg 187 215 fm-amp \$1;
#X msg 290 215 ring-freq \$1;
#X msg 393 215 ring-amt \$1;
#X connect 4 0 7 0;
#X connect 4 0 6 0;
#X connect 4 1 18 0;
#X connect 5 0 4 0;
#X connect 8 0 12 0;
#X connect 9 0 13 0;
#X connect 10 0 14 0;
#X connect 11 0 15 0;
#X connect 12 0 34 0;
#X connect 13 0 35 0;
#X connect 14 0 36 0;
#X connect 15 0 37 0;
#X connect 16 0 17 0;
#X connect 17 0 29 0;
#X connect 17 1 27 0;
#X connect 17 2 26 0;
#X connect 17 3 33 0;
#X connect 22 0 21 0;
#X connect 24 0 23 0;
#X connect 25 0 20 0;
#X connect 26 0 22 0;
#X connect 27 0 19 0;
#X connect 28 0 24 0;
#X connect 29 0 28 0;
#X connect 30 0 31 0;
#X connect 31 0 4 1;
#X connect 33 0 25 0;
#X connect 34 0 4 1;
#X connect 35 0 4 1;
#X connect 36 0 4 1;
#X connect 37 0 4 1;
