#N canvas 338 23 1362 1358 12;
#X text 887 8 Copyright 2019 Dan Bornstein <danfuzz@milk.com>. Licensed
AS IS and WITHOUT WARRANTY under the Apache License \, Version 2.0.
Details: <http://www.apache.org/licenses/LICENSE-2.0>, f 65;
#X text 1201 265 Minimum value;
#X text 1140 320 Maximum value;
#X obj 1133 265 float \$1;
#X obj 1071 320 float \$2;
#X obj 1009 382 float \$3;
#X obj 546 578 moses -0.5;
#X obj 613 617 moses 0.50001;
#X obj 1009 407 value quant\$0;
#X obj 1085 669 expr rint($f1 * quant\$0) / quant\$0;
#X obj 1071 345 value max\$0;
#X obj 1133 290 value min\$0;
#X obj 947 226 trigger bang bang bang bang;
#X obj 947 183 loadbang;
#X text 898 153 Contructor arguments / initial values;
#X obj 121 826 expr (min\$0 + max\$0) / 2;
#X text 298 861 Set initial value.;
#X obj 79 894 float 1;
#X obj 79 933 value frozen\$0;
#X text 188 918 Output starts out frozen and becomes unfrozen once
the controller passes through the zero-point., f 41;
#X obj 546 503 select 0;
#X obj 208 232 inlet;
#X obj 52 763 receive \$0-reset;
#X obj 947 440 send \$0-reset;
#X obj 546 542 expr input\$0;
#X obj 547 361 trigger bang float;
#X obj 670 395 value input\$0;
#X obj 546 430 expr frozen\$0 = frozen\$0 && ((input\$0 < -0.1) ||
(input\$0 > 0.1)), f 34;
#X obj 15 1269 expr max(min($f1 \, max\$0) \, min\$0);
#X obj 15 1328 outlet;
#X obj 1085 705 value center\$0;
#X obj 1085 632 receive \$0-set-center-value;
#X obj 121 860 send \$0-set-center-value;
#X obj 613 852 expr center\$0 + ($f1 * quant\$0);
#X text 617 504 Only adjusts value when unfrozen.;
#X obj 15 1210 receive \$0-to-outlet;
#X obj 613 884 send \$0-to-outlet;
#X obj 25 404 trigger bang bang;
#X obj 25 485 send \$0-output-center;
#X obj 1090 508 receive \$0-output-center;
#X obj 1090 544 expr center\$0;
#X obj 1090 579 send \$0-to-outlet;
#X obj 668 541 send \$0-output-center;
#X obj 141 446 send \$0-reset;
#X obj 15 1299 change;
#X text 267 1243 Round to the quantization increment.;
#X text 266 1270 Clip to the limits.;
#X obj 613 755 trigger float bang;
#X obj 313 661 trigger bang float;
#X obj 701 653 trigger bang float;
#X obj 15 1240 expr rint($f1 / quant\$0) * quant\$0;
#X text 136 977 Number of individual increments in the center range
of the control., f 25;
#X obj 54 980 float 50;
#X obj 54 1030 value midincs\$0;
#X obj 613 822 expr rint($f1 * midincs\$0);
#X obj 208 276 route reset set;
#X text 792 973 Auto-increment section;
#X obj 417 436 send \$0-reset;
#X obj 338 461 send \$0-set-center-value;
#X obj 259 403 trigger bang float bang;
#X obj 259 487 send \$0-output-center;
#X text 1076 382 Increment quantum.;
#X text 802 815 Number of quanta up/down from center., f 24;
#X obj 824 707 expr min(1 \, ($f1 - 0.5) * 2 + 0.01), f 20;
#X obj 436 716 expr max(-1 \, ($f1 + 0.5) * 2 - 0.01), f 22;
#N canvas 1285 203 1006 841 auto-increment 0;
#X obj 124 315 metro 50;
#X text 573 192 Convert to increment per 50msec (1/20 sec).;
#X obj 456 191 expr $f1 / 20;
#X text 677 136 Increment per second \, set up as exponentially increasing
in magnitude as the control moves away from center., f 39;
#X obj 124 446 +;
#X obj 456 140 expr copysign(pow((max\$0 - min\$0) / 5 \, abs($f1))
\, $f1), f 30;
#X obj 98 69 inlet;
#X text 26 33 Toggle auto-increment (`0` to turn it off \, `1` to turn
it on)., f 32;
#X obj 456 96 inlet;
#X obj 98 134 select 0;
#X msg 98 181 stop;
#X msg 151 182 bang;
#X text 324 29 Amount of auto-increment. Float in range [-1..1] to
indicate how far from center the control is and in which direction.
The further away from center \, the faster the rate of change., f
49;
#X obj 127 594 outlet;
#X obj 419 599 outlet;
#X text 109 618 Value to send to the main outlet.;
#X text 404 624 New center value.;
#X obj 124 347 expr max(min(center\$0 + $f2 \, max\$0) \, min\$0) \;
if($f2 < 0 \, -1 \, 1) * midincs\$0 / 2 * quant\$0, f 47;
#X text 467 337 The first expression here calculates the new center
value. The second one emits the offset from center based on the current
direction of travel. This flows into an adder below \, to produce the
final value output.;
#X connect 0 0 17 0;
#X connect 2 0 17 1;
#X connect 4 0 13 0;
#X connect 5 0 2 0;
#X connect 6 0 9 0;
#X connect 8 0 5 0;
#X connect 9 0 10 0;
#X connect 9 1 11 0;
#X connect 10 0 0 0;
#X connect 11 0 0 0;
#X connect 17 0 4 0;
#X connect 17 0 14 0;
#X connect 17 1 4 1;
#X restore 750 1105 pd auto-increment;
#X msg 719 1054 1;
#X msg 758 1055 0;
#X obj 749 1169 send \$0-to-outlet;
#X obj 866 1143 value center\$0;
#X text 882 1100 See comments in this sub-object for more details.
, f 28;
#X obj 719 999 receive \$0-auto-on;
#X obj 758 1026 receive \$0-auto-off;
#X obj 866 1066 receive \$0-auto-amt;
#X obj 313 694 send \$0-auto-on;
#X obj 436 759 send \$0-auto-amt;
#X obj 824 750 send \$0-auto-amt;
#X obj 701 686 send \$0-auto-on;
#X obj 736 785 send \$0-auto-off;
#X text 13 8 "Infinite" range knob. See `README.md` for details.,
f 52;
#X connect 3 0 11 0;
#X connect 4 0 10 0;
#X connect 5 0 8 0;
#X connect 6 0 48 0;
#X connect 6 1 7 0;
#X connect 7 0 47 0;
#X connect 7 1 49 0;
#X connect 9 0 30 0;
#X connect 12 0 23 0;
#X connect 12 1 5 0;
#X connect 12 2 4 0;
#X connect 12 3 3 0;
#X connect 13 0 12 0;
#X connect 15 0 32 0;
#X connect 17 0 18 0;
#X connect 20 0 24 0;
#X connect 20 1 42 0;
#X connect 21 0 55 0;
#X connect 22 0 15 0;
#X connect 22 0 17 0;
#X connect 22 0 52 0;
#X connect 24 0 6 0;
#X connect 25 0 27 0;
#X connect 25 1 26 0;
#X connect 27 0 20 0;
#X connect 28 0 44 0;
#X connect 31 0 9 0;
#X connect 33 0 36 0;
#X connect 35 0 50 0;
#X connect 37 0 38 0;
#X connect 37 1 43 0;
#X connect 39 0 40 0;
#X connect 40 0 41 0;
#X connect 44 0 29 0;
#X connect 47 0 54 0;
#X connect 47 1 78 0;
#X connect 48 0 74 0;
#X connect 48 1 64 0;
#X connect 49 0 77 0;
#X connect 49 1 63 0;
#X connect 50 0 28 0;
#X connect 52 0 53 0;
#X connect 54 0 33 0;
#X connect 55 0 37 0;
#X connect 55 1 59 0;
#X connect 55 2 25 0;
#X connect 59 0 60 0;
#X connect 59 1 58 0;
#X connect 59 2 57 0;
#X connect 63 0 76 0;
#X connect 64 0 75 0;
#X connect 65 0 68 0;
#X connect 65 1 69 0;
#X connect 66 0 65 0;
#X connect 67 0 65 0;
#X connect 71 0 66 0;
#X connect 72 0 67 0;
#X connect 73 0 65 1;
