#N canvas 348 169 991 806 12;
#X declare -path .;
#X obj 11 43 declare -path .;
#X text 501 14 Copyright 2019 Dan Bornstein <danfuzz@milk.com>. Licensed
AS IS and WITHOUT WARRANTY under the Apache License \, Version 2.0.
Details: <http://www.apache.org/licenses/LICENSE-2.0>, f 65;
#X floatatom 640 230 8 0 0 0 - - -;
#X text 13 12 "Vanilla Pd" example for this patch.;
#X obj 625 161 ctl-to-pm1;
#X floatatom 834 229 8 0 0 0 - - -;
#X obj 808 159 ctl-to-pm1;
#X obj 13 142 notein;
#X obj 13 192 mtof;
#X obj 57 192 expr if($f1 == 0 \, 0 \, 1);
#X obj 56 554 osc~;
#X obj 56 699 *~;
#X obj 56 757 dac~;
#X obj 625 194 infiknob 0.1 20000 0.1;
#X obj 808 195 infiknob 0 100 0.01;
#X text 623 105 frequency;
#X obj 108 554 osc~;
#X obj 56 649 *~;
#X obj 108 588 expr~ 1 - (($v1 + 1) / 2 * ($v2 * 0.01)), f 20;
#X text 657 74 Amplitude LFO / ring modulator;
#X text 354 82 Frequency modulator;
#X floatatom 479 232 8 0 0 0 - - -;
#X obj 453 161 ctl-to-pm1;
#X text 275 106 frequency cents;
#X text 807 101 aplitude amount %;
#X floatatom 297 233 8 0 0 0 - - -;
#X obj 282 161 ctl-to-pm1;
#X obj 282 194 infiknob -2400 2400 1;
#X obj 663 396 loadbang;
#X obj 663 428 expr pow(2 \, 1.0/1200);
#X obj 247 358 trigger bang float;
#X obj 156 439 osc~;
#X obj 56 472 expr~ $v1 * (1 + ($v2 * $v3));
#X obj 13 257 send \$0-main-freq;
#X obj 56 329 receive \$0-main-freq;
#X obj 57 227 send \$0-on-off;
#X obj 101 660 receive \$0-on-off;
#X obj 453 194 infiknob 0 16 0.01;
#X obj 625 259 send \$0-ring-freq;
#X obj 807 260 send \$0-ring-amt;
#X obj 108 513 receive \$0-ring-freq;
#X obj 245 550 receive \$0-ring-amt;
#X obj 282 262 send \$0-fm-cents;
#X obj 247 329 receive \$0-fm-cents;
#X obj 56 358 trigger float float;
#X obj 156 403 expr $f1 * pow(one_cent\$0 \, $f2);
#X obj 663 460 value one_cent\$0;
#N canvas 0 50 450 250 (subpatch) 0;
#X array \$0-scope 256 float 0;
#X coords 0 -1 255 1 256 128 1 0 0;
#X restore 613 610 graph;
#X obj 458 613 receive~ \$0-out;
#X obj 480 678 metro 100;
#X obj 480 647 receive \$0-on-off;
#X obj 458 710 tabwrite~ \$0-scope;
#X obj 110 757 send~ \$0-out;
#X obj 282 128 ctlin 21;
#X obj 453 128 ctlin 22;
#X obj 625 128 ctlin 23;
#X obj 808 126 ctlin 24;
#X text 540 333 Constant "one cent." That is \, the value which if
taken to the 1200th power is 2 \, or put another way \, the ratio which
if applied 1200 times to a frequency yields the frequency one octave
higher., f 54;
#X text 453 104 amplitude;
#X obj 453 263 send \$0-fm-amp;
#X obj 256 440 receive \$0-fm-amp;
#X connect 4 0 13 0;
#X connect 6 0 14 0;
#X connect 7 0 8 0;
#X connect 7 1 9 0;
#X connect 8 0 33 0;
#X connect 9 0 35 0;
#X connect 10 0 17 0;
#X connect 11 0 12 0;
#X connect 11 0 12 1;
#X connect 11 0 52 0;
#X connect 13 0 2 0;
#X connect 13 0 38 0;
#X connect 14 0 5 0;
#X connect 14 0 39 0;
#X connect 16 0 18 0;
#X connect 17 0 11 0;
#X connect 18 0 17 1;
#X connect 22 0 37 0;
#X connect 26 0 27 0;
#X connect 27 0 25 0;
#X connect 27 0 42 0;
#X connect 28 0 29 0;
#X connect 29 0 46 0;
#X connect 30 0 45 0;
#X connect 30 1 45 1;
#X connect 31 0 32 1;
#X connect 32 0 10 0;
#X connect 34 0 44 0;
#X connect 36 0 11 1;
#X connect 37 0 21 0;
#X connect 37 0 59 0;
#X connect 40 0 16 0;
#X connect 41 0 18 1;
#X connect 43 0 30 0;
#X connect 44 0 32 0;
#X connect 44 1 45 0;
#X connect 45 0 31 0;
#X connect 48 0 51 0;
#X connect 49 0 51 0;
#X connect 50 0 49 0;
#X connect 53 0 26 0;
#X connect 54 0 22 0;
#X connect 55 0 4 0;
#X connect 56 0 6 0;
#X connect 60 0 32 2;
