#N canvas 17 482 636 422 12;
#X declare -path .;
#X obj 12 104 declare -path .;
#X text 139 3 Copyright 2019 Dan Bornstein <danfuzz@milk.com>. Licensed
AS IS and WITHOUT WARRANTY under the Apache License \, Version 2.0.
Details: <http://www.apache.org/licenses/LICENSE-2.0>, f 65;
#X floatatom 23 337 8 0 0 0 - - -;
#X text 14 73 "Vanilla Pd" example for this patch.;
#X floatatom 109 246 7 0 0 0 - - -;
#X obj 23 206 ctl-to-pm1;
#X floatatom 107 180 5 0 0 0 - - -;
#X obj 23 144 ctlin 21;
#X floatatom 341 313 8 0 0 0 - - -;
#X floatatom 427 222 7 0 0 0 - - -;
#X obj 341 182 ctl-to-pm1;
#X floatatom 425 156 5 0 0 0 - - -;
#X obj 341 120 ctlin 22;
#X msg 285 178 reset;
#X msg 221 146 set 5.432;
#X msg 227 203 bang;
#X obj 381 292 bng 15 250 50 0 empty empty empty 17 7 0 10 -262144
-1 -1;
#X obj 23 287 infiknob 1 20000 0.1;
#X obj 341 263 infiknob -10 10 0.001;
#X connect 5 0 4 0;
#X connect 5 0 17 0;
#X connect 7 0 5 0;
#X connect 7 0 6 0;
#X connect 10 0 9 0;
#X connect 10 0 18 0;
#X connect 12 0 10 0;
#X connect 12 0 11 0;
#X connect 13 0 18 0;
#X connect 14 0 18 0;
#X connect 15 0 18 0;
#X connect 17 0 2 0;
#X connect 18 0 8 0;
#X connect 18 0 16 0;
