#N canvas 950 282 620 402 12;
#X declare -path .;
#X obj 11 132 declare -path .;
#X text 139 3 Copyright 2019 Dan Bornstein <danfuzz@milk.com>. Licensed
AS IS and WITHOUT WARRANTY under the Apache License \, Version 2.0.
Details: <http://www.apache.org/licenses/LICENSE-2.0>, f 65;
#X obj 16 220 notein 1;
#X obj 16 276 pack 0 0;
#X obj 16 340 send notes;
#X obj 135 222 catch~ outL;
#X obj 160 256 catch~ outR;
#X obj 135 304 dac~;
#X text 13 73 This provides just enough of what's provided in the Organelle's
`mother.pd` \, so that the patch can be used in "pure Pd.";
#X obj 12 169 main;
#X connect 2 0 3 0;
#X connect 2 1 3 1;
#X connect 3 0 4 0;
#X connect 5 0 7 0;
#X connect 6 0 7 1;
