#N canvas 678 219 1056 1119 12;
#X obj 19 57 inlet;
#X obj 15 669 phasor~;
#X obj 531 170 send \$0-velocity;
#X obj 403 170 send \$0-frequency;
#X obj 61 527 receive \$0-frequency;
#X obj 609 544 receive \$0-velocity;
#X obj 563 724 sig~;
#X obj 563 473 receive \$0-on;
#X obj 858 593 receive \$0-off;
#X obj 19 265 send \$0-off;
#X obj 274 211 send \$0-on;
#X obj 563 757 send~ \$0-amp;
#X obj 858 631 float 0;
#X obj 563 614 float 0;
#X obj 609 579 expr max($f1 / 127 \, 1);
#X text 563 425 Simplest possible envelope: Set amplitude to velocity
(scaled) upon note-on \, and set it to zero upon note-off.;
#X text 607 507 Velocity is received and "latched" (buffered) to be
banged out upon note-on.;
#X obj 15 558 float 0;
#X text 59 490 Frequency is received and "latched" (buffered) to be
banged out upon note-on.;
#X obj 61 610 receive \$0-on;
#X text 60 588 Reset phase upon note-on.;
#X obj 15 426 receive \$0-on;
#X text 116 425 Update frequency upon note-on.;
#X text 715 393 Envelope Section;
#X text 116 392 Oscillator Section;
#X obj 12 849 receive~ \$0-osc-sample-left;
#X obj 12 978 outlet~;
#X obj 30 886 receive~ \$0-amp;
#X obj 12 921 *~;
#X text 369 885 <-- Amps are driven by the envelope.;
#X obj 232 979 outlet~;
#X obj 250 883 receive~ \$0-amp;
#X obj 232 919 *~;
#X obj 232 847 receive~ \$0-osc-sample-right;
#X text 175 814 Output Section;
#X obj 38 723 send~ \$0-osc-sample-left;
#X obj 38 770 send~ \$0-osc-sample-right;
#X text 219 33 Input Section;
#X obj 19 230 bang;
#X obj 274 178 bang;
#X obj 61 639 float 0;
#X text 589 2 Copyright 2019 Dan Bornstein <danfuzz@milk.com>. Licensed
AS IS and WITHOUT WARRANTY under the Apache License \, Version 2.0.
Details: <http://www.apache.org/licenses/LICENSE-2.0>, f 65;
#X text 82 669 Simplest possible oscillator function (a sawtooth).
;
#X obj 19 125 route off on on-top frequency velocity, f 92;
#X obj 147 311 send \$0-reset-phase;
#X obj 147 246 trigger bang bang;
#X obj 263 285 send \$0-on;
#X text 62 90 **Note:** See `interface.md` for info on the meaning
/ structure of each of these messages., f 50;
#X connect 0 0 43 0;
#X connect 1 0 35 0;
#X connect 1 0 36 0;
#X connect 4 0 17 1;
#X connect 5 0 14 0;
#X connect 6 0 11 0;
#X connect 7 0 13 0;
#X connect 8 0 12 0;
#X connect 12 0 6 0;
#X connect 13 0 6 0;
#X connect 14 0 13 1;
#X connect 17 0 1 0;
#X connect 19 0 40 0;
#X connect 21 0 17 0;
#X connect 25 0 28 0;
#X connect 27 0 28 1;
#X connect 28 0 26 0;
#X connect 31 0 32 1;
#X connect 32 0 30 0;
#X connect 33 0 32 0;
#X connect 38 0 9 0;
#X connect 39 0 10 0;
#X connect 40 0 1 1;
#X connect 43 0 38 0;
#X connect 43 1 45 0;
#X connect 43 2 39 0;
#X connect 43 3 3 0;
#X connect 43 4 2 0;
#X connect 45 0 44 0;
#X connect 45 1 46 0;
