#N canvas 135 464 1044 657 12;
#X obj 300 50 inlet;
#X obj 884 190 delay 1000;
#X obj 460 187 delay 999;
#X obj 884 595 outlet;
#X msg 21 285 /oled/gShowInfoBar 3 0 \, /oled/gClear 3 1 \, /oled/gBox
3 0 0 128 64 1 \, /oled/gBox 3 2 2 124 60 1 \, /oled/gPrintln 3 6 16
32 1 \$1 \, /oled/gFlip 3;
#X obj 249 151 loadbang;
#X obj 249 187 fk-string \$1;
#X obj 21 230 symbol;
#X obj 476 585 outlet;
#X msg 460 227 /oled/gShowInfoBar 3 1 \, /oled/gClear 3 1 \, /oled/gFlip
3;
#X text 573 4 Copyright 2019 Dan Bornstein <danfuzz@milk.com>. Licensed
AS IS and WITHOUT WARRANTY under the Apache License \, Version 2.0.
Details: <http://www.apache.org/licenses/LICENSE-2.0>, f 65;
#X connect 0 0 2 0;
#X connect 0 0 1 0;
#X connect 0 0 7 0;
#X connect 1 0 3 0;
#X connect 2 0 9 0;
#X connect 4 0 8 0;
#X connect 5 0 6 0;
#X connect 6 0 7 1;
#X connect 7 0 4 0;
#X connect 9 0 8 0;
