#N canvas 165 417 721 473 12;
#X obj 45 131 until;
#X obj 131 334 list store;
#X obj 28 257 + 1;
#X msg 119 131 0, f 2;
#X msg 72 257 get \$1 1;
#X obj 45 65 trigger bang bang list;
#X obj 45 29 inlet;
#X obj 45 200 int;
#X obj 131 395 outlet;
#X obj 198 395 outlet;
#X text 255 65 This is adapted from the Pd example "list / example
3: serializing a message without delays.";
#X text 256 4 Copyright 2019 Dan Bornstein <danfuzz@milk.com>. Licensed
AS IS and WITHOUT WARRANTY under the Apache License \, Version 2.0.
Details: <http://www.apache.org/licenses/LICENSE-2.0>, f 65;
#X connect 0 0 7 0;
#X connect 1 0 8 0;
#X connect 1 1 0 1;
#X connect 1 1 9 0;
#X connect 2 0 7 1;
#X connect 3 0 7 1;
#X connect 4 0 1 0;
#X connect 5 0 0 0;
#X connect 5 1 3 0;
#X connect 5 2 1 1;
#X connect 6 0 5 0;
#X connect 7 0 2 0;
#X connect 7 0 4 0;
